<svg width="17" height="17" viewBox="0 0 17 17" fill="none" xmlns="http://www.w3.org/2000/svg">
<path d="M5.32011 16.7666C5.25894 16.7666 5.19884 16.7492 5.14576 16.716C5.09268 16.6828 5.04847 16.6351 5.01751 16.5776C3.70597 14.1396 0.211072 8.95113 0.175914 8.89899C0.125979 8.82493 0.102138 8.73374 0.108748 8.64209C0.115358 8.55043 0.151978 8.46443 0.211914 8.39981L1.28623 7.24155C1.34459 7.17862 1.42132 7.14 1.50308 7.13241C1.58484 7.12481 1.66646 7.14872 1.73373 7.19998L5.24695 9.87658C7.58266 6.60276 9.75325 4.3434 11.1799 3.01214C12.779 1.51975 13.7957 0.84914 13.8382 0.821193C13.8928 0.785475 13.9552 0.766605 14.0188 0.766602H15.7567C15.8279 0.766589 15.8973 0.790167 15.9559 0.834211C16.0145 0.878254 16.0594 0.940681 16.0847 1.01322C16.11 1.08575 16.1145 1.16497 16.0976 1.24036C16.0807 1.31575 16.0432 1.38376 15.9901 1.43537C13.4136 3.93909 10.7349 7.91721 8.94143 10.8135C6.99185 13.9616 5.63846 16.5475 5.62502 16.5732C5.59455 16.6316 5.55055 16.6802 5.49744 16.7141C5.44433 16.748 5.38397 16.7661 5.32242 16.7666L5.32011 16.7666Z" fill="#463998"/>
</svg>
