<svg width="35" height="32" viewBox="0 0 35 32" fill="none" xmlns="http://www.w3.org/2000/svg">
<mask id="mask0_7312_4141" style="mask-type:luminance" maskUnits="userSpaceOnUse" x="0" y="0" width="21" height="28">
<path d="M3.44104 3.47933C1.58086 5.21807 0.637085 7.43367 0.637085 10.0699C0.637085 12.2575 1.27561 14.3048 2.5249 16.1838C3.60761 17.7824 5.49416 19.8297 8.35364 22.4379L12.7943 26.6447C13.5994 27.2617 14.7654 27.1215 15.4039 26.3924C16.0979 25.6071 16.0424 24.4011 15.2929 23.6719C12.9886 21.5685 13.3495 21.8771 11.0465 19.7737C8.65901 17.6142 6.99331 15.7912 6.07716 14.3328C5.21654 12.9867 4.77235 11.5844 4.77235 10.1821C4.77235 8.55546 5.32759 7.26547 6.43806 6.22777C7.60406 5.16208 8.93663 4.65723 10.5746 4.65723C12.1835 4.65723 13.6549 5.07786 14.9042 5.91924C15.6815 6.4802 16.4866 7.23735 17.3195 8.21894C17.3195 8.21894 17.3195 8.21894 17.2917 8.21894C17.5138 8.52747 17.9025 9.11642 18.069 9.98579C18.2634 11.1076 17.9302 12.0051 17.7637 12.3416C18.4022 12.3416 19.2893 12.0331 20.0111 11.2478C20.7329 10.4345 21.6491 7.43367 19.678 5.07786C19.1783 4.48891 18.6798 3.78786 17.1251 2.75017C15.2651 1.51615 12.9609 0.871094 10.3525 0.871094C7.63183 0.871094 5.29982 1.76858 3.44104 3.47933Z" fill="white"/>
</mask>
<g mask="url(#mask0_7312_4141)">
<path d="M21.6768 0.871094H0.637085V27.2336H21.6768V0.871094Z" fill="url(#paint0_linear_7312_4141)"/>
</g>
<mask id="mask1_7312_4141" style="mask-type:luminance" maskUnits="userSpaceOnUse" x="0" y="0" width="21" height="13">
<path d="M3.44104 3.47933C1.58086 5.21807 0.637085 7.43367 0.637085 10.0699C0.637085 11.0235 0.748137 11.949 0.997994 12.8465C1.08128 11.8649 1.35877 10.1821 2.49713 8.52747C5.16101 4.68522 10.0471 4.65723 10.5746 4.65723C12.1835 4.65723 13.6549 5.07786 14.9042 5.91924C15.6815 6.4802 16.4866 7.23735 17.3195 8.21894C17.3195 8.21894 17.3195 8.21894 17.2917 8.21894C17.5138 8.52747 17.9025 9.11643 18.069 9.9858C18.2634 11.1076 17.9302 12.0051 17.7637 12.3416C18.4022 12.3416 19.2893 12.0331 20.0111 11.2478C20.7329 10.4345 21.6491 7.43367 19.678 5.07786C19.1783 4.48891 18.6798 3.78786 17.1251 2.75017C15.2651 1.51615 12.9609 0.871094 10.3525 0.871094C7.63183 0.871094 5.29982 1.76858 3.44104 3.47933Z" fill="white"/>
</mask>
<g mask="url(#mask1_7312_4141)">
<path d="M21.6768 0.871094H0.637085V12.8465H21.6768V0.871094Z" fill="url(#paint1_linear_7312_4141)"/>
</g>
<mask id="mask2_7312_4141" style="mask-type:luminance" maskUnits="userSpaceOnUse" x="14" y="0" width="21" height="32">
<path d="M25.2291 0.871094C22.5917 0.871094 20.3165 1.48804 18.4564 2.75017C17.9289 3.11469 17.5125 3.42322 17.1794 3.73175C17.0683 3.81585 16.9573 3.92807 16.874 4.01217C16.4576 4.40481 16.1799 4.76945 15.9301 5.07786C13.9603 7.40568 14.8486 10.4345 15.5969 11.2478C16.3188 12.0331 17.2071 12.3416 17.8457 12.3416C17.7068 12.0051 17.3459 11.1076 17.5403 9.9858C17.6791 9.11643 18.0955 8.52747 18.3176 8.21894C19.1227 7.23735 19.9278 6.45208 20.7329 5.91924C21.9822 5.07786 23.4523 4.65723 25.0625 4.65723C26.6727 4.65723 28.033 5.16209 29.199 6.22777C30.336 7.26547 30.8635 8.55546 30.8635 10.1821C30.8635 11.5563 30.4193 12.9587 29.5599 14.3329C28.6438 15.7631 26.9781 17.5861 24.5905 19.7737L16.5964 27.8226C16.5964 27.8226 16.5964 27.8226 16.5686 27.8507C16.2355 28.1872 16.0134 28.6639 16.0134 29.1968C16.0134 30.2626 16.874 31.132 17.9289 31.132C18.4287 31.132 18.9006 30.9356 19.2337 30.5991L19.2615 30.571L19.2893 30.543L27.2834 22.466C30.1417 19.8578 32.0295 17.8105 33.1122 16.2118C34.3615 14.3329 35 12.2575 35 10.098C35 7.46178 34.0561 5.24619 32.196 3.50732C30.3082 1.76858 27.9775 0.871094 25.2291 0.871094Z" fill="white"/>
</mask>
<g mask="url(#mask2_7312_4141)">
<path d="M4.32812 4.43143L16.4033 37.9456L44.5766 27.5688L32.5014 -5.94531L4.32812 4.43143Z" fill="url(#paint2_linear_7312_4141)"/>
</g>
<defs>
<linearGradient id="paint0_linear_7312_4141" x1="0.614749" y1="14.0715" x2="20.8566" y2="14.0715" gradientUnits="userSpaceOnUse">
<stop stop-color="#871719"/>
<stop offset="0.45" stop-color="#DA1F26"/>
<stop offset="1" stop-color="#F0564B"/>
</linearGradient>
<linearGradient id="paint1_linear_7312_4141" x1="0.614749" y1="6.89162" x2="20.8566" y2="6.89162" gradientUnits="userSpaceOnUse">
<stop stop-color="#F0564B"/>
<stop offset="0.55" stop-color="#DA1F26"/>
<stop offset="1" stop-color="#871719"/>
</linearGradient>
<linearGradient id="paint2_linear_7312_4141" x1="19.4167" y1="2.08684" x2="28.701" y2="27.3338" gradientUnits="userSpaceOnUse">
<stop stop-color="#EC1C24"/>
<stop offset="0.1279" stop-color="#EC1C24"/>
<stop offset="0.204" stop-color="#CB2037"/>
<stop offset="0.5673" stop-color="#2E3191"/>
<stop offset="1" stop-color="#2E3191"/>
</linearGradient>
</defs>
</svg>
