<svg width="22" height="22" viewBox="0 0 22 22" fill="none" xmlns="http://www.w3.org/2000/svg">
<path d="M20.1667 5.95801H14.6667" stroke="#1C1C1C" stroke-miterlimit="10" stroke-linecap="round" stroke-linejoin="round"/>
<path d="M5.49992 5.95801H1.83325" stroke="#1C1C1C" stroke-miterlimit="10" stroke-linecap="round" stroke-linejoin="round"/>
<path d="M9.16659 9.16667C10.9385 9.16667 12.3749 7.73025 12.3749 5.95833C12.3749 4.18642 10.9385 2.75 9.16659 2.75C7.39467 2.75 5.95825 4.18642 5.95825 5.95833C5.95825 7.73025 7.39467 9.16667 9.16659 9.16667Z" stroke="#1C1C1C" stroke-miterlimit="10" stroke-linecap="round" stroke-linejoin="round"/>
<path d="M20.1667 16.042H16.5" stroke="#1C1C1C" stroke-miterlimit="10" stroke-linecap="round" stroke-linejoin="round"/>
<path d="M7.33325 16.042H1.83325" stroke="#1C1C1C" stroke-miterlimit="10" stroke-linecap="round" stroke-linejoin="round"/>
<path d="M12.8333 19.2497C14.6052 19.2497 16.0417 17.8133 16.0417 16.0413C16.0417 14.2694 14.6052 12.833 12.8333 12.833C11.0614 12.833 9.625 14.2694 9.625 16.0413C9.625 17.8133 11.0614 19.2497 12.8333 19.2497Z" stroke="#1C1C1C" stroke-miterlimit="10" stroke-linecap="round" stroke-linejoin="round"/>
</svg>
