<svg width="22" height="22" viewBox="0 0 22 22" fill="none" xmlns="http://www.w3.org/2000/svg">
<g clip-path="url(#clip0_108_502)">
<path d="M20.4806 1.85103C20.319 1.69686 20.057 1.69673 19.8953 1.85103L15.6041 5.94707C15.5462 6.00231 15.5067 6.0727 15.4907 6.14934C15.4748 6.22598 15.483 6.30542 15.5143 6.37761C15.5456 6.44981 15.5987 6.51151 15.6667 6.55492C15.7348 6.59832 15.8148 6.62148 15.8967 6.62146C15.9511 6.62153 16.0049 6.61134 16.0551 6.59149C16.1054 6.57164 16.151 6.54252 16.1894 6.50579L20.4806 2.40975C20.6422 2.25541 20.6422 2.00529 20.4806 1.85103ZM21.6476 2.94738C21.5699 2.87332 21.4647 2.83172 21.3549 2.83172C21.2452 2.83172 21.1399 2.87332 21.0623 2.94738L16.7711 7.0435C16.6935 7.1176 16.6499 7.21808 16.6499 7.32285C16.6499 7.42763 16.6934 7.52811 16.771 7.60222C16.8094 7.63895 16.8551 7.66808 16.9053 7.68793C16.9555 7.70778 17.0094 7.71796 17.0637 7.7179C17.1181 7.71796 17.1719 7.70778 17.2221 7.68793C17.2724 7.66808 17.318 7.63895 17.3564 7.60222L21.6476 3.50606C21.686 3.46937 21.7165 3.42583 21.7373 3.3779C21.7581 3.32997 21.7688 3.2786 21.7688 3.22672C21.7688 3.17484 21.7581 3.12347 21.7373 3.07554C21.7165 3.02761 21.686 2.98406 21.6476 2.94738Z" fill="black"/>
<path d="M17.5995 9.86373L22.9264 4.77889C22.9649 4.74221 22.9954 4.69865 23.0162 4.65072C23.037 4.60279 23.0477 4.55141 23.0477 4.49953C23.0477 4.44765 23.037 4.39627 23.0162 4.34834C22.9954 4.30041 22.9649 4.25685 22.9264 4.22017C22.7647 4.066 22.5028 4.06587 22.3411 4.22017L17.0142 9.30501C16.358 9.9314 15.3545 10.0958 14.5173 9.71411C14.4362 9.67716 14.3448 9.66637 14.2568 9.68337C14.1688 9.70036 14.0889 9.74423 14.0293 9.80834L12.2193 11.755C12.2186 11.7557 12.2178 11.7563 12.2171 11.7571C12.2164 11.7579 12.2158 11.7587 12.2151 11.7595L4.39201 20.1726L4.38611 20.1792C4.36227 20.2061 4.33731 20.232 4.3113 20.2571C3.79475 20.7501 2.95433 20.75 2.43801 20.2571C2.18781 20.0183 2.05002 19.7007 2.05002 19.363C2.05002 19.0252 2.18781 18.7077 2.43846 18.4684C2.46447 18.4437 2.49154 18.42 2.51962 18.3974C2.52196 18.3955 2.52421 18.3936 2.52646 18.3917L7.41724 14.2481C7.49932 14.1785 7.54911 14.0807 7.55563 13.9761C7.56216 13.8715 7.52489 13.7688 7.45203 13.6904C7.30029 13.5272 7.03866 13.5122 6.86778 13.6572L1.98025 17.7981C1.93618 17.8338 1.89364 17.8712 1.85272 17.9102C1.44619 18.2982 1.22229 18.8142 1.22229 19.363C1.22229 19.9117 1.44615 20.4277 1.85268 20.8157C2.27235 21.2162 2.82347 21.4165 3.37472 21.4165C3.92575 21.4165 4.477 21.2163 4.89636 20.8159C4.93731 20.7768 4.97659 20.7361 5.01412 20.694L10.9755 14.2828L16.937 20.694C16.9744 20.7361 17.0136 20.7768 17.0545 20.8158C17.4741 21.2163 18.0252 21.4166 18.5764 21.4166C19.1276 21.4166 19.6788 21.2163 20.0984 20.8158C20.9375 20.0147 20.9375 18.7114 20.0986 17.9105C20.0577 17.8714 20.015 17.834 19.9709 17.7982L13.111 11.9862L14.4532 10.5428C15.5406 10.9106 16.771 10.6544 17.5995 9.86373ZM19.4246 18.3918L19.4314 18.3974C19.4596 18.4202 19.4868 18.444 19.513 18.4688C20.0295 18.9618 20.0295 19.764 19.5131 20.257C18.9965 20.7499 18.1562 20.7499 17.6395 20.2568C17.6114 20.2298 17.5845 20.2017 17.5589 20.1725L11.5288 13.6876L12.5614 12.5771L19.4246 18.3918Z" fill="black"/>
<path d="M19.2384 0.699638C19.1608 0.625583 19.0555 0.583984 18.9457 0.583984C18.836 0.583984 18.7307 0.625583 18.6531 0.699638L13.3262 5.78452C12.4977 6.57531 12.2294 7.74969 12.6146 8.7879L10.9754 10.1767L9.4 8.84196C10.2147 7.31175 9.91731 5.45383 8.62475 4.21998C7.34102 2.9946 5.85409 2.13226 4.43788 1.7919C2.95945 1.43668 1.69192 1.67382 0.868422 2.45985C0.0449201 3.24588 -0.203562 4.45597 0.168666 5.8671C0.525274 7.21886 1.42863 8.6382 2.71246 9.86354C4.00501 11.0974 5.95137 11.3813 7.55452 10.6036L9.11469 12.2814C9.1535 12.3233 9.20119 12.3567 9.25458 12.3796C9.30798 12.4025 9.36586 12.4143 9.4244 12.4142C9.52563 12.4143 9.62337 12.3789 9.69899 12.3146L13.3842 9.19232C13.4513 9.13542 13.4973 9.05921 13.5151 8.9752C13.5329 8.89119 13.5216 8.80393 13.4829 8.72659C13.083 7.92733 13.2552 6.96955 13.9115 6.3432L19.2384 1.25836C19.2768 1.22168 19.3073 1.17812 19.3281 1.13019C19.3489 1.08226 19.3596 1.03088 19.3596 0.978999C19.3596 0.927116 19.3489 0.875741 19.3281 0.827808C19.3073 0.779875 19.2768 0.736322 19.2384 0.699638ZM9.45901 11.4615L7.95246 9.84137C7.88782 9.77183 7.79955 9.72629 7.7032 9.71275C7.60684 9.69922 7.50858 9.71856 7.42569 9.76738C6.09874 10.5484 4.40123 10.3584 3.29765 9.3049C2.11808 8.17899 1.29192 6.88963 0.971281 5.67417C0.673058 4.54336 0.844384 3.6002 1.45375 3.01858C2.06303 2.43686 3.0511 2.27341 4.23571 2.55812C5.50905 2.86415 6.8599 3.65271 8.03938 4.77866C9.14296 5.83204 9.34211 7.45239 8.52383 8.71902C8.47273 8.79815 8.45249 8.89194 8.46666 8.98391C8.48084 9.07587 8.52853 9.16012 8.60135 9.22184L10.3519 10.705L9.45901 11.4615Z" fill="black"/>
</g>
<defs>
<clipPath id="clip0_108_502">
<rect width="22" height="22" fill="white"/>
</clipPath>
</defs>
</svg>
