<svg width="160" height="60" viewBox="0 0 160 60" fill="none" xmlns="http://www.w3.org/2000/svg">
<g clip-path="url(#clip0_199_1592)">
<mask id="mask0_199_1592" style="mask-type:luminance" maskUnits="userSpaceOnUse" x="125" y="14" width="21" height="28">
<path d="M128.243 17.046C126.371 18.8447 125.421 21.1367 125.421 23.8638C125.421 26.1269 126.064 28.2448 127.321 30.1886C128.41 31.8423 130.309 33.9601 133.186 36.6583L137.655 41.0101C138.465 41.6485 139.638 41.5034 140.281 40.7491C140.979 39.9368 140.923 38.6892 140.169 37.9349C137.85 35.759 138.213 36.0781 135.896 33.9022C133.493 31.6683 131.817 29.7824 130.895 28.2737C130.029 26.8812 129.582 25.4306 129.582 23.9799C129.582 22.2972 130.141 20.9627 131.258 19.8892C132.432 18.7868 133.773 18.2645 135.421 18.2645C137.04 18.2645 138.521 18.6997 139.778 19.5701C140.56 20.1504 141.37 20.9336 142.208 21.9491C142.208 21.9491 142.208 21.9491 142.18 21.9491C142.404 22.2682 142.795 22.8775 142.963 23.7768C143.158 24.9373 142.823 25.8658 142.655 26.2139C143.298 26.2139 144.19 25.8947 144.917 25.0824C145.643 24.2411 146.565 21.1367 144.582 18.6997C144.079 18.0904 143.577 17.3652 142.013 16.2917C140.141 15.0151 137.822 14.3478 135.197 14.3478C132.46 14.3478 130.113 15.2763 128.243 17.046Z" fill="white"/>
</mask>
<g mask="url(#mask0_199_1592)">
<path d="M146.593 14.3478H125.421V41.6194H146.593V14.3478Z" fill="url(#paint0_linear_199_1592)"/>
</g>
<mask id="mask1_199_1592" style="mask-type:luminance" maskUnits="userSpaceOnUse" x="125" y="14" width="21" height="13">
<path d="M128.243 17.046C126.371 18.8447 125.421 21.1367 125.421 23.8638C125.421 24.8503 125.533 25.8077 125.784 26.7361C125.868 25.7207 126.147 23.9799 127.293 22.2682C129.973 18.2935 134.89 18.2645 135.421 18.2645C137.04 18.2645 138.521 18.6997 139.778 19.5701C140.56 20.1504 141.37 20.9336 142.208 21.9491C142.208 21.9491 142.208 21.9491 142.18 21.9491C142.404 22.2682 142.795 22.8775 142.963 23.7768C143.158 24.9373 142.823 25.8658 142.655 26.2139C143.298 26.2139 144.19 25.8947 144.917 25.0824C145.643 24.2411 146.565 21.1367 144.582 18.6997C144.079 18.0904 143.577 17.3652 142.013 16.2917C140.141 15.0151 137.822 14.3478 135.197 14.3478C132.46 14.3478 130.113 15.2763 128.243 17.046Z" fill="white"/>
</mask>
<g mask="url(#mask1_199_1592)">
<path d="M146.593 14.3478H125.421V26.7361H146.593V14.3478Z" fill="url(#paint1_linear_199_1592)"/>
</g>
<mask id="mask2_199_1592" style="mask-type:luminance" maskUnits="userSpaceOnUse" x="139" y="14" width="21" height="32">
<path d="M150.168 14.3478C147.514 14.3478 145.224 14.9861 143.352 16.2917C142.822 16.6688 142.403 16.988 142.067 17.3071C141.956 17.3941 141.844 17.5102 141.76 17.5972C141.341 18.0034 141.062 18.3806 140.81 18.6997C138.828 21.1078 139.722 24.2411 140.475 25.0824C141.201 25.8947 142.095 26.2139 142.738 26.2139C142.598 25.8658 142.235 24.9373 142.43 23.7768C142.57 22.8775 142.989 22.2682 143.213 21.9491C144.023 20.9336 144.833 20.1213 145.643 19.5701C146.9 18.6997 148.38 18.2645 150 18.2645C151.62 18.2645 152.989 18.7868 154.163 19.8892C155.307 20.9627 155.837 22.2972 155.837 23.9799C155.837 25.4015 155.39 26.8522 154.526 28.2738C153.604 29.7534 151.928 31.6392 149.525 33.9022L141.481 42.2287C141.481 42.2287 141.481 42.2287 141.453 42.2578C141.117 42.6059 140.894 43.0991 140.894 43.6503C140.894 44.7528 141.76 45.6522 142.822 45.6522C143.324 45.6522 143.799 45.4491 144.135 45.101L144.163 45.0719L144.19 45.0429L152.235 36.6874C155.111 33.9892 157.011 31.8714 158.1 30.2176C159.357 28.2738 160 26.1269 160 23.8929C160 21.1658 159.05 18.8738 157.178 17.075C155.279 15.2763 152.933 14.3478 150.168 14.3478Z" fill="white"/>
</mask>
<g mask="url(#mask2_199_1592)">
<path d="M129.135 18.0324L141.286 52.7022L169.637 41.9675L157.486 7.29779L129.135 18.0324Z" fill="url(#paint2_linear_199_1592)"/>
</g>
<path d="M14.6921 14.8118C10.9771 14.8118 7.765 16.1173 5.05563 18.6124C4.83218 18.8155 4.60872 19.0186 4.38527 19.2506C1.48038 22.1809 0 25.8074 0 30.0142C0 34.192 1.5083 37.7896 4.32941 40.7489C6.28462 42.7796 8.51916 44.1433 11.0609 44.8105C12.2061 45.1007 13.4072 45.2457 14.6641 45.2457C15.921 45.2457 17.1501 45.1007 18.2952 44.8105C18.6305 44.7235 18.9377 44.6365 19.245 44.5204C19.3567 44.4623 19.4963 44.4334 19.608 44.3753H19.6359C21.3677 43.7371 22.9319 42.7506 24.3844 41.3871L28.9093 44.7815L29.3283 45.1007V14.7827L24.3844 18.6413C21.647 16.1173 18.407 14.8118 14.6921 14.8118ZM20.9208 36.513C19.5801 37.9056 18.0159 38.7469 16.2563 39.037C15.7535 39.1242 15.2507 39.1821 14.6921 39.1821C12.2341 39.1821 10.1671 38.3408 8.43537 36.5419C6.70361 34.7432 5.89359 32.5673 5.89359 30.0433C5.89359 27.7222 6.56394 25.7204 8.01639 24.0086C8.15605 23.8346 8.26777 23.6896 8.43537 23.5154C10.1671 21.7167 12.2341 20.8753 14.6921 20.8753C17.1222 20.8753 19.1891 21.7457 20.9208 23.5445C22.6526 25.3432 23.4905 27.4902 23.4905 30.0142C23.4905 32.5673 22.6526 34.7142 20.9208 36.513Z" fill="#EC1C24"/>
<path d="M68.1538 44.5204C69.5783 45.0136 71.0866 45.2747 72.6788 45.2747C74.2429 45.2747 75.7792 45.0136 77.2316 44.5204C78.293 44.1722 79.2986 43.6791 80.304 43.0407C82.5665 41.5902 84.3542 39.6463 85.6111 37.2092L86.1697 36.1358L81.0582 33.1475L80.4716 34.308C79.7175 35.7876 78.6561 37.0062 77.2596 37.8765C75.8629 38.7469 74.3547 39.1821 72.7067 39.1821C71.2822 39.1821 69.9414 38.892 68.7124 38.1957L81.3375 26.6198L85.6111 22.7031L85.0804 21.8037C83.7956 19.6857 81.98 18.0321 79.8851 16.7846C78.3488 15.8851 76.7008 15.2469 74.9692 15.0149C74.2429 14.8697 73.4888 14.8118 72.7346 14.8118C72.3435 14.8118 71.9805 14.8407 71.5894 14.8407C68.07 15.1019 64.9975 16.5815 62.4278 19.2216C59.5509 22.1808 58.0705 25.8074 58.0705 30.0142C58.0705 32.4512 58.6012 34.6852 59.5788 36.7161C60.2771 38.1666 61.2546 39.5012 62.3999 40.7198C64.0757 42.5185 66.0031 43.795 68.1538 44.5204ZM63.992 28.5926C64.2433 26.6487 65.0254 24.966 66.422 23.5154C66.6734 23.2834 66.8969 23.0222 67.1482 22.8192H67.1761C68.7403 21.4845 70.5839 20.8753 72.6788 20.8753C74.3546 20.8753 75.8908 21.3104 77.2874 22.2099L64.6903 33.8438C64.1595 32.6252 63.9082 31.3778 63.9082 30.0142C63.9082 29.521 63.9361 29.0568 63.992 28.5926Z" fill="#EC1C24"/>
<path d="M49.4669 45.1878H55.3326V27.3162C55.3326 24.0668 54.2711 21.2236 52.0366 18.9316C49.83 16.6396 47.0927 15.5371 43.9364 15.5371C41.1712 15.5371 38.7131 16.4365 36.6462 18.2933L32.5682 14.8698V45.2457H38.4339V27.3162C38.4339 25.7204 38.9646 24.3859 40.0259 23.2834C41.1153 22.152 42.4001 21.6297 43.9084 21.6297C45.4447 21.6297 46.7295 22.152 47.8189 23.2544C48.9361 24.3859 49.411 25.7495 49.411 27.3451V45.1878H49.4669Z" fill="#EC1C24"/>
<path d="M110.665 45.2457L101.169 27.8672L108.291 14.8118H101.364L97.677 21.5426L93.99 14.8118H87.035L94.2414 27.8672L84.6608 45.2457H91.6159L97.677 34.192L103.71 45.2457H110.665Z" fill="#EC1C24"/>
</g>
<defs>
<linearGradient id="paint0_linear_199_1592" x1="125.398" y1="28.0034" x2="145.768" y2="28.0034" gradientUnits="userSpaceOnUse">
<stop stop-color="#871719"/>
<stop offset="0.45" stop-color="#DA1F26"/>
<stop offset="1" stop-color="#F0564B"/>
</linearGradient>
<linearGradient id="paint1_linear_199_1592" x1="125.398" y1="20.576" x2="145.768" y2="20.576" gradientUnits="userSpaceOnUse">
<stop stop-color="#F0564B"/>
<stop offset="0.55" stop-color="#DA1F26"/>
<stop offset="1" stop-color="#871719"/>
</linearGradient>
<linearGradient id="paint2_linear_199_1592" x1="144.319" y1="15.6069" x2="154.126" y2="41.5488" gradientUnits="userSpaceOnUse">
<stop stop-color="#EC1C24"/>
<stop offset="0.1279" stop-color="#EC1C24"/>
<stop offset="0.204" stop-color="#CB2037"/>
<stop offset="0.5673" stop-color="#2E3191"/>
<stop offset="1" stop-color="#2E3191"/>
</linearGradient>
<clipPath id="clip0_199_1592">
<rect width="160" height="60" fill="white"/>
</clipPath>
</defs>
</svg>
