<svg width="32" height="32" viewBox="0 0 32 32" fill="none" xmlns="http://www.w3.org/2000/svg">
<circle cx="16" cy="16" r="16" fill="#EC1C24"/>
<path fill-rule="evenodd" clip-rule="evenodd" d="M17.9713 26.7422C19.0653 25.1244 19.1661 23.3771 18.2737 21.5003C18.0256 22.5072 17.5717 23.1183 16.9119 23.3337C17.5246 21.584 17.0126 19.6938 15.3761 17.6628C15.3408 19.7604 14.8367 21.2884 13.8639 22.2468C12.5237 23.5658 12.5394 25.0544 13.9111 26.7126C8.21698 23.6823 7.41364 19.6182 11.501 14.5202C11.7545 15.7518 12.3688 16.5079 13.3441 16.7886C12.2811 12.2777 13.3995 8.43411 16.6993 5.25781C16.7196 12.3067 18.8811 12.9332 21.6141 16.0797C24.5648 19.8556 22.8308 24.2131 17.9713 26.7422Z" fill="white"/>
</svg>
