<svg width="23" height="28" viewBox="0 0 23 28" fill="none" xmlns="http://www.w3.org/2000/svg">
<path fill-rule="evenodd" clip-rule="evenodd" d="M10.5875 27.0402C11.1407 27.0402 21.0265 16.4778 21.0265 10.7125C21.0265 4.94714 16.3527 0.273438 10.5875 0.273438C4.82214 0.273438 0.148438 4.94714 0.148438 10.7125C0.148438 16.4778 10.0342 27.0402 10.5875 27.0402ZM10.5875 15.9337C13.5105 15.9337 15.8801 13.5641 15.8801 10.6411C15.8801 7.71805 13.5105 5.34848 10.5875 5.34848C7.66446 5.34848 5.29489 7.71805 5.29489 10.6411C5.29489 13.5641 7.66446 15.9337 10.5875 15.9337Z" fill="#463998"/>
<path fill-rule="evenodd" clip-rule="evenodd" d="M0.148438 10.7125C0.148438 16.4778 10.0342 27.0402 10.5875 27.0402V15.9337C7.66445 15.9336 5.29489 13.5641 5.29489 10.6411C5.29489 7.71806 7.66445 5.34849 10.5875 5.34848V0.273438C4.82214 0.273438 0.148438 4.94714 0.148438 10.7125Z" fill="#6B5CC8"/>
</svg>
